<svg width="88" height="88" viewBox="0 0 88 88" fill="none" xmlns="http://www.w3.org/2000/svg">
<g filter="url(#filter0_d_0_73)">
<rect x="4" width="80" height="80" fill="white"/>
</g>
<path d="M43.6686 44.7345C46.7676 44.7345 49.2354 42.2094 49.2354 39.1678V38.0201H38.1019V39.1678C38.1019 42.2094 40.5696 44.7345 43.6686 44.7345ZM46.7102 40.3156C46.2511 41.5208 45.046 42.3816 43.6686 42.3816C42.2913 42.3816 41.1435 41.5208 40.627 40.3156H46.7102Z" fill="#ED2024"/>
<path d="M52.0473 26.3128V20H35.2898V26.3128H21V60H66.3372V26.3128H52.0473ZM37.6428 22.4103H49.6944V26.3702H37.6428V22.4103ZM63.9842 28.6657V38.594L43.6686 50.5308L23.3529 38.594V28.6657H63.9842ZM23.3529 57.6471V41.3486L43.6686 53.2855L63.9842 41.3486V57.6471H23.3529Z" fill="#ED2024"/>
<defs>
<filter id="filter0_d_0_73" x="0" y="0" width="88" height="88" filterUnits="userSpaceOnUse" color-interpolation-filters="sRGB">
<feFlood flood-opacity="0" result="BackgroundImageFix"/>
<feColorMatrix in="SourceAlpha" type="matrix" values="0 0 0 0 0 0 0 0 0 0 0 0 0 0 0 0 0 0 127 0" result="hardAlpha"/>
<feOffset dy="4"/>
<feGaussianBlur stdDeviation="2"/>
<feComposite in2="hardAlpha" operator="out"/>
<feColorMatrix type="matrix" values="0 0 0 0 0 0 0 0 0 0 0 0 0 0 0 0 0 0 0.15 0"/>
<feBlend mode="normal" in2="BackgroundImageFix" result="effect1_dropShadow_0_73"/>
<feBlend mode="normal" in="SourceGraphic" in2="effect1_dropShadow_0_73" result="shape"/>
</filter>
</defs>
</svg>
