<svg width="24" height="24" viewBox="0 0 24 24" fill="none" xmlns="http://www.w3.org/2000/svg">
<path fill-rule="evenodd" clip-rule="evenodd" d="M10.8566 8.3379C11.3747 7.63969 11.5605 6.90384 10.9745 6.25431C9.65955 4.41433 8.77521 3.27649 8.22051 2.72854C7.16595 1.6868 5.43118 1.82771 4.51785 2.72765C4.0273 3.21101 3.86122 3.377 3.35753 3.88861C0.551877 6.69577 2.26291 12.63 6.81145 17.183C11.359 21.735 17.2926 23.4469 20.1042 20.6338C20.569 20.1858 20.9625 19.792 21.2729 19.464C22.1679 18.518 22.3038 16.8597 21.267 15.7824C20.7354 15.2301 19.6504 14.3885 17.733 13.0169C17.1457 12.4918 16.4495 12.6056 15.8111 13.0244C15.504 13.2259 15.2806 13.4297 14.8586 13.8521L14.0924 14.6187C13.9914 14.7197 12.621 14.0334 11.2908 12.7018C9.95978 11.3695 9.27396 9.99906 9.37441 9.89862L10.1412 9.13142C10.2751 8.99742 10.3391 8.93254 10.4211 8.84627C10.5921 8.66654 10.7337 8.50344 10.8566 8.3379ZM15.5058 16.0329L16.2722 15.2661C16.5044 15.0337 16.6549 14.8907 16.7774 14.7922C18.457 15.9984 19.4298 16.7568 19.8271 17.1697C20.0657 17.4176 20.0286 17.8699 19.8212 18.089C19.5342 18.3924 19.1614 18.7655 18.7038 19.2068C16.8858 21.0256 12.096 19.6437 8.22519 15.7691C4.35321 11.8933 2.97194 7.10279 4.77626 5.29748C5.27792 4.78798 5.43686 4.62912 5.92042 4.15265C6.10172 3.97401 6.59558 3.93389 6.81614 4.15176C7.2432 4.57364 8.0354 5.58799 9.20077 7.21133C9.14044 7.28623 9.06509 7.37087 8.97339 7.46724C8.90609 7.53798 8.85002 7.59481 8.72744 7.71751L7.96142 8.48396C6.65827 9.787 7.76808 12.0047 9.87703 14.1157C11.9845 16.2253 14.2031 17.3364 15.5058 16.0329Z" fill="#ED2024"/>
</svg>
