<svg width="84" height="16" viewBox="0 0 84 16" fill="none" xmlns="http://www.w3.org/2000/svg">
<path d="M0.312 12V0.896H1.816V12H0.312ZM1.336 12V10.624H7.704V12H1.336ZM1.336 6.976V5.664H7.176V6.976H1.336ZM1.336 2.272V0.896H7.624V2.272H1.336ZM9.4935 12V4.4H10.9335V12H9.4935ZM14.6295 12V7.408C14.6295 6.84267 14.4535 6.4 14.1015 6.08C13.7602 5.74933 13.3282 5.584 12.8055 5.584C12.4535 5.584 12.1388 5.65867 11.8615 5.808C11.5842 5.95733 11.3602 6.16533 11.1895 6.432C11.0188 6.69867 10.9335 7.01867 10.9335 7.392L10.3415 7.104C10.3415 6.528 10.4642 6.02667 10.7095 5.6C10.9655 5.17333 11.3122 4.84267 11.7495 4.608C12.1868 4.36267 12.6775 4.24 13.2215 4.24C13.7548 4.24 14.2348 4.35733 14.6615 4.592C15.0988 4.82667 15.4402 5.15733 15.6855 5.584C15.9415 6.01067 16.0695 6.51733 16.0695 7.104V12H14.6295ZM19.7655 12V7.408C19.7655 6.84267 19.5895 6.4 19.2375 6.08C18.8962 5.74933 18.4695 5.584 17.9575 5.584C17.6055 5.584 17.2855 5.65867 16.9975 5.808C16.7202 5.95733 16.4962 6.16533 16.3255 6.432C16.1548 6.69867 16.0695 7.01867 16.0695 7.392L15.2535 7.104C15.2855 6.51733 15.4402 6.016 15.7175 5.6C16.0055 5.17333 16.3735 4.84267 16.8215 4.608C17.2695 4.36267 17.7602 4.24 18.2935 4.24C18.8482 4.24 19.3442 4.35733 19.7815 4.592C20.2188 4.82667 20.5655 5.15733 20.8215 5.584C21.0882 6.01067 21.2215 6.52267 21.2215 7.12V12H19.7655ZM27.181 12.16C26.605 12.16 26.0823 12.0427 25.613 11.808C25.1543 11.5627 24.7863 11.2267 24.509 10.8C24.2317 10.3733 24.077 9.888 24.045 9.344V7.056C24.077 6.50133 24.2317 6.016 24.509 5.6C24.797 5.17333 25.1703 4.84267 25.629 4.608C26.0983 4.36267 26.6157 4.24 27.181 4.24C27.8743 4.24 28.4983 4.416 29.053 4.768C29.6183 5.12 30.061 5.59467 30.381 6.192C30.701 6.78933 30.861 7.46133 30.861 8.208C30.861 8.95467 30.701 9.62667 30.381 10.224C30.061 10.8213 29.6183 11.296 29.053 11.648C28.4983 11.9893 27.8743 12.16 27.181 12.16ZM26.941 10.8C27.421 10.8 27.8423 10.688 28.205 10.464C28.5677 10.24 28.8557 9.936 29.069 9.552C29.2823 9.15733 29.389 8.704 29.389 8.192C29.389 7.69067 29.2823 7.24267 29.069 6.848C28.8557 6.45333 28.5677 6.14933 28.205 5.936C27.8423 5.712 27.4263 5.6 26.957 5.6C26.477 5.6 26.0557 5.712 25.693 5.936C25.3303 6.14933 25.0477 6.45333 24.845 6.848C24.6423 7.24267 24.541 7.696 24.541 8.208C24.541 8.70933 24.637 9.15733 24.829 9.552C25.0317 9.936 25.3143 10.24 25.677 10.464C26.0503 10.688 26.4717 10.8 26.941 10.8ZM23.181 15.184V4.4H24.621V6.4L24.349 8.24L24.621 10.096V15.184H23.181ZM33.3471 12V3.264C33.3471 2.69867 33.4698 2.208 33.7151 1.792C33.9605 1.36533 34.2965 1.02933 34.7231 0.783999C35.1605 0.538666 35.6671 0.415999 36.2431 0.415999C36.6805 0.415999 37.0591 0.490666 37.3791 0.639999C37.6991 0.789333 37.9925 1.008 38.2591 1.296L37.3151 2.224C37.1765 2.07467 37.0218 1.96267 36.8511 1.888C36.6805 1.80267 36.4725 1.76 36.2271 1.76C35.7685 1.76 35.4111 1.89333 35.1551 2.16C34.9098 2.42667 34.7871 2.79467 34.7871 3.264V12H33.3471ZM31.4751 5.712V4.4H37.2031V5.712H31.4751ZM41.7323 12.16C40.9749 12.16 40.2923 11.9893 39.6843 11.648C39.0763 11.296 38.5963 10.8213 38.2443 10.224C37.8923 9.62667 37.7163 8.94933 37.7163 8.192C37.7163 7.44533 37.8869 6.77333 38.2283 6.176C38.5803 5.57867 39.0496 5.10933 39.6363 4.768C40.2336 4.416 40.9003 4.24 41.6363 4.24C42.3403 4.24 42.9589 4.4 43.4923 4.72C44.0363 5.04 44.4576 5.48267 44.7563 6.048C45.0656 6.61333 45.2203 7.25333 45.2203 7.968C45.2203 8.07467 45.2149 8.192 45.2043 8.32C45.1936 8.43733 45.1723 8.576 45.1403 8.736H38.7243V7.536H44.3723L43.8443 8C43.8443 7.488 43.7536 7.056 43.5723 6.704C43.3909 6.34133 43.1349 6.064 42.8043 5.872C42.4736 5.66933 42.0736 5.568 41.6043 5.568C41.1136 5.568 40.6816 5.67467 40.3083 5.888C39.9349 6.10133 39.6469 6.4 39.4443 6.784C39.2416 7.168 39.1403 7.62133 39.1403 8.144C39.1403 8.67733 39.2469 9.14667 39.4603 9.552C39.6736 9.94667 39.9776 10.256 40.3723 10.48C40.7669 10.6933 41.2203 10.8 41.7323 10.8C42.1589 10.8 42.5483 10.7253 42.9003 10.576C43.2629 10.4267 43.5723 10.2027 43.8283 9.904L44.7563 10.848C44.3936 11.2747 43.9456 11.6 43.4123 11.824C42.8896 12.048 42.3296 12.16 41.7323 12.16ZM52.1664 12V7.568C52.1664 6.992 51.985 6.51733 51.6224 6.144C51.2597 5.77067 50.7904 5.584 50.2144 5.584C49.8304 5.584 49.489 5.66933 49.1904 5.84C48.8917 6.01067 48.657 6.24533 48.4864 6.544C48.3157 6.84267 48.2304 7.184 48.2304 7.568L47.6384 7.232C47.6384 6.656 47.7664 6.144 48.0224 5.696C48.2784 5.248 48.6357 4.896 49.0944 4.64C49.553 4.37333 50.0704 4.24 50.6464 4.24C51.2224 4.24 51.729 4.368 52.1664 4.624C52.6144 4.88 52.9664 5.23733 53.2224 5.696C53.4784 6.15467 53.6064 6.68267 53.6064 7.28V12H52.1664ZM46.7904 12V0.575999H48.2304V12H46.7904ZM55.556 12V0.575999H56.996V12H55.556ZM62.1749 12.16C61.5455 12.16 60.9802 12.0213 60.4789 11.744C59.9882 11.456 59.6042 11.0613 59.3269 10.56C59.0495 10.0587 58.9109 9.47733 58.9109 8.816V4.4H60.3509V8.752C60.3509 9.168 60.4202 9.53067 60.5589 9.84C60.7082 10.1387 60.9215 10.368 61.1989 10.528C61.4762 10.688 61.8015 10.768 62.1749 10.768C62.7402 10.768 63.1829 10.592 63.5029 10.24C63.8229 9.87733 63.9829 9.38133 63.9829 8.752V4.4H65.4229V8.816C65.4229 9.47733 65.2842 10.0587 65.0069 10.56C64.7295 11.0613 64.3455 11.456 63.8549 11.744C63.3749 12.0213 62.8149 12.16 62.1749 12.16ZM72.7289 12V7.568C72.7289 6.992 72.5475 6.51733 72.1849 6.144C71.8222 5.77067 71.3529 5.584 70.7769 5.584C70.3929 5.584 70.0515 5.66933 69.7529 5.84C69.4542 6.01067 69.2195 6.24533 69.0489 6.544C68.8782 6.84267 68.7929 7.184 68.7929 7.568L68.2009 7.232C68.2009 6.656 68.3289 6.144 68.5849 5.696C68.8409 5.248 69.1982 4.896 69.6569 4.64C70.1155 4.37333 70.6329 4.24 71.2089 4.24C71.7849 4.24 72.2915 4.384 72.7289 4.672C73.1769 4.96 73.5289 5.33867 73.7849 5.808C74.0409 6.26667 74.1689 6.75733 74.1689 7.28V12H72.7289ZM67.3529 12V4.4H68.7929V12H67.3529ZM79.2705 15.344C78.4918 15.344 77.7985 15.2 77.1905 14.912C76.5932 14.624 76.1132 14.2187 75.7505 13.696L76.6785 12.752C76.9878 13.1467 77.3558 13.4453 77.7825 13.648C78.2092 13.8613 78.7158 13.968 79.3025 13.968C80.0812 13.968 80.6945 13.76 81.1425 13.344C81.6012 12.9387 81.8305 12.3893 81.8305 11.696V9.808L82.0865 8.096L81.8305 6.4V4.4H83.2705V11.696C83.2705 12.4213 83.0998 13.056 82.7585 13.6C82.4278 14.144 81.9585 14.5707 81.3505 14.88C80.7532 15.1893 80.0598 15.344 79.2705 15.344ZM79.2705 11.872C78.5772 11.872 77.9532 11.7067 77.3985 11.376C76.8545 11.0453 76.4225 10.592 76.1025 10.016C75.7825 9.42933 75.6225 8.77333 75.6225 8.048C75.6225 7.32267 75.7825 6.67733 76.1025 6.112C76.4225 5.536 76.8545 5.08267 77.3985 4.752C77.9532 4.41067 78.5772 4.24 79.2705 4.24C79.8678 4.24 80.3958 4.35733 80.8545 4.592C81.3132 4.82667 81.6758 5.15733 81.9425 5.584C82.2198 6 82.3692 6.49067 82.3905 7.056V9.072C82.3585 9.62667 82.2038 10.1173 81.9265 10.544C81.6598 10.96 81.2972 11.2853 80.8385 11.52C80.3798 11.7547 79.8572 11.872 79.2705 11.872ZM79.5585 10.512C80.0278 10.512 80.4385 10.4107 80.7905 10.208C81.1532 10.0053 81.4305 9.72267 81.6225 9.36C81.8145 8.98667 81.9105 8.55467 81.9105 8.064C81.9105 7.57333 81.8092 7.14667 81.6065 6.784C81.4145 6.41067 81.1425 6.12267 80.7905 5.92C80.4385 5.70667 80.0225 5.6 79.5425 5.6C79.0625 5.6 78.6412 5.70667 78.2785 5.92C77.9158 6.12267 77.6278 6.41067 77.4145 6.784C77.2118 7.14667 77.1105 7.568 77.1105 8.048C77.1105 8.528 77.2118 8.95467 77.4145 9.328C77.6278 9.70133 77.9158 9.99467 78.2785 10.208C78.6518 10.4107 79.0785 10.512 79.5585 10.512Z" fill="#ED2024"/>
</svg>
