<svg width="88" height="88" viewBox="0 0 88 88" fill="none" xmlns="http://www.w3.org/2000/svg">
<g filter="url(#filter0_d_0_63)">
<rect x="4" width="80" height="80" fill="white"/>
</g>
<path d="M52.2381 33.3651H49.4444V43.1429H45.9524V59.2064H41.7619V43.1429H38.2698V33.3651H35.4762V45.9365H38.9683V62H48.746V45.9365H52.2381V33.3651Z" fill="#ED2024"/>
<path d="M38.9683 22.8889C38.9683 25.5778 41.1683 27.7778 43.8572 27.7778C46.546 27.7778 48.746 25.5778 48.746 22.8889C48.746 20.2 46.546 18 43.8572 18C41.1683 18 38.9683 20.2 38.9683 22.8889ZM45.9524 22.8889C45.9524 24.0413 45.0095 24.9841 43.8572 24.9841C42.7048 24.9841 41.7619 24.0413 41.7619 22.8889C41.7619 21.7365 42.7048 20.7937 43.8572 20.7937C45.0095 20.7937 45.9524 21.7365 45.9524 22.8889Z" fill="#ED2024"/>
<path d="M27.0953 26.3809C27.0953 29.0698 29.2953 31.2698 31.9842 31.2698C34.6731 31.2698 36.8731 29.0698 36.8731 26.3809C36.8731 23.692 34.6731 21.492 31.9842 21.492C29.2953 21.492 27.0953 23.692 27.0953 26.3809ZM34.0795 26.3809C34.0795 27.5333 33.1366 28.4762 31.9842 28.4762C30.8318 28.4762 29.889 27.5333 29.889 26.3809C29.889 25.2285 30.8318 24.2857 31.9842 24.2857C33.1366 24.2857 34.0795 25.2285 34.0795 26.3809Z" fill="#ED2024"/>
<path d="M59.9207 46.6349H56.4286V59.2063H50.8413V62H59.2223V49.4286H62.7143V35.4603H59.9207V46.6349Z" fill="#ED2024"/>
<path d="M50.8413 26.3809C50.8413 29.0698 53.0413 31.2698 55.7302 31.2698C58.4191 31.2698 60.6191 29.0698 60.6191 26.3809C60.6191 23.692 58.4191 21.492 55.7302 21.492C53.0413 21.492 50.8413 23.692 50.8413 26.3809ZM55.7302 24.2857C56.8826 24.2857 57.8254 25.2285 57.8254 26.3809C57.8254 27.5333 56.8826 28.4762 55.7302 28.4762C54.5778 28.4762 53.635 27.5333 53.635 26.3809C53.635 25.2285 54.5778 24.2857 55.7302 24.2857Z" fill="#ED2024"/>
<path d="M31.2857 46.6349H27.7937V35.4603H25V49.4286H28.4921V62H36.873V59.2063H31.2857V46.6349Z" fill="#ED2024"/>
<defs>
<filter id="filter0_d_0_63" x="0" y="0" width="88" height="88" filterUnits="userSpaceOnUse" color-interpolation-filters="sRGB">
<feFlood flood-opacity="0" result="BackgroundImageFix"/>
<feColorMatrix in="SourceAlpha" type="matrix" values="0 0 0 0 0 0 0 0 0 0 0 0 0 0 0 0 0 0 127 0" result="hardAlpha"/>
<feOffset dy="4"/>
<feGaussianBlur stdDeviation="2"/>
<feComposite in2="hardAlpha" operator="out"/>
<feColorMatrix type="matrix" values="0 0 0 0 0 0 0 0 0 0 0 0 0 0 0 0 0 0 0.15 0"/>
<feBlend mode="normal" in2="BackgroundImageFix" result="effect1_dropShadow_0_63"/>
<feBlend mode="normal" in="SourceGraphic" in2="effect1_dropShadow_0_63" result="shape"/>
</filter>
</defs>
</svg>
