<svg width="88" height="88" viewBox="0 0 88 88" fill="none" xmlns="http://www.w3.org/2000/svg">
<g filter="url(#filter0_d_0_80)">
<rect x="4" width="80" height="80" fill="white"/>
</g>
<path d="M56.6912 52.3036L56.6913 52.3035C58.1759 51.3406 59.3888 50.0389 60.2261 48.517C61.0632 46.9954 61.4999 45.299 61.5 43.578L56.6912 52.3036ZM56.6912 52.3036L44.5 60.212L32.3088 52.3036L32.3087 52.3035M56.6912 52.3036L32.3087 52.3035M32.3087 52.3035C30.8244 51.3408 29.6116 50.0394 28.7744 48.5178M32.3087 52.3035L28.7744 48.5178M44.5 19.5347L27.9266 23.1181C27.9266 23.1181 27.9265 23.1181 27.9265 23.1181C27.7942 23.1468 27.684 23.2167 27.6095 23.3071C27.5358 23.3965 27.5001 23.5014 27.5 23.604L44.5 19.5347ZM44.5 19.5347L61.0734 23.1181C61.0734 23.1181 61.0735 23.1181 61.0735 23.1181C61.2058 23.1468 61.316 23.2167 61.3905 23.3071L62.538 22.3609L61.3905 23.3071C61.4642 23.3965 61.4999 23.5014 61.5 23.604C61.5 23.6041 61.5 23.6042 61.5 23.6043V43.5779L44.5 19.5347ZM28.7744 48.5178C27.9373 46.9966 27.5005 45.3006 27.5 43.58M28.7744 48.5178L27.5 43.58M27.5 43.58C27.5 43.5799 27.5 43.5798 27.5 43.5796M27.5 43.58V43.5796M27.5 43.5796V23.6043V43.5796Z" stroke="#ED2024" stroke-width="3"/>
<rect x="43" y="30" width="3" height="15" fill="#ED2024"/>
<rect x="37" y="39" width="3" height="15" transform="rotate(-90 37 39)" fill="#ED2024"/>
<defs>
<filter id="filter0_d_0_80" x="0" y="0" width="88" height="88" filterUnits="userSpaceOnUse" color-interpolation-filters="sRGB">
<feFlood flood-opacity="0" result="BackgroundImageFix"/>
<feColorMatrix in="SourceAlpha" type="matrix" values="0 0 0 0 0 0 0 0 0 0 0 0 0 0 0 0 0 0 127 0" result="hardAlpha"/>
<feOffset dy="4"/>
<feGaussianBlur stdDeviation="2"/>
<feComposite in2="hardAlpha" operator="out"/>
<feColorMatrix type="matrix" values="0 0 0 0 0 0 0 0 0 0 0 0 0 0 0 0 0 0 0.15 0"/>
<feBlend mode="normal" in2="BackgroundImageFix" result="effect1_dropShadow_0_80"/>
<feBlend mode="normal" in="SourceGraphic" in2="effect1_dropShadow_0_80" result="shape"/>
</filter>
</defs>
</svg>
