<svg width="14" height="16" viewBox="0 0 14 16" fill="none" xmlns="http://www.w3.org/2000/svg">
<path fill-rule="evenodd" clip-rule="evenodd" d="M6.66929 5.25519L11.6193 3.13329L7.37629 7.37629L0.305288 1.71929L0.62148 0.0744663L6.66929 5.25519ZM7.26229 14.9273L7.25129 14.9293L7.18029 14.9643L7.16029 14.9683L7.14629 14.9643L7.07529 14.9293C7.06529 14.9253 7.05629 14.9283 7.05129 14.9343L7.04729 14.9443L7.03029 15.3723L7.03529 15.3923L7.04529 15.4053L7.14929 15.4793L7.16429 15.4833L7.17629 15.4793L7.28029 15.4053L7.29229 15.3893L7.29629 15.3723L7.27929 14.9453C7.27729 14.9353 7.27029 14.9283 7.26229 14.9273ZM7.52729 14.8143L7.51429 14.8163L7.32929 14.9093L7.31929 14.9193L7.31629 14.9303L7.33429 15.3603L7.33929 15.3723L7.34729 15.3793L7.54829 15.4723C7.56029 15.4763 7.57129 15.4723 7.57729 15.4643L7.58129 15.4503L7.54729 14.8363C7.54429 14.8243 7.53729 14.8163 7.52729 14.8143ZM6.81229 14.8163C6.80775 14.8142 6.80266 14.8137 6.79779 14.8148C6.79291 14.8159 6.78853 14.8185 6.78529 14.8223L6.77929 14.8363L6.74529 15.4503C6.74529 15.4623 6.75229 15.4703 6.76229 15.4743L6.77729 15.4723L6.97829 15.3793L6.98829 15.3713L6.99229 15.3603L7.00929 14.9303L7.00629 14.9183L6.99629 14.9083L6.81229 14.8163Z" fill="#ED2024"/>
<path fill-rule="evenodd" clip-rule="evenodd" d="M7.37629 7.37629C7.18876 7.56376 6.93445 7.66907 6.66929 7.66907C6.40412 7.66907 6.14982 7.56376 5.96229 7.37629L0.305288 1.71929C0.209778 1.62704 0.133596 1.5167 0.0811869 1.39469C0.0287779 1.27269 0.00119157 1.14147 3.77564e-05 1.00869C-0.00111606 0.87591 0.0241859 0.744231 0.0744668 0.621335C0.124748 0.498438 0.199001 0.386786 0.292893 0.292893C0.386786 0.199 0.498583 0.124747 0.62148 0.0744663C0.744376 0.0241854 0.87591 -0.00111606 1.00869 3.77571e-05C1.14147 0.00119157 1.27269 0.0287779 1.39469 0.0811869C1.5167 0.133596 1.62704 0.209778 1.71929 0.305288L6.66929 5.25519L11.6193 0.305288C11.8079 0.12313 12.0605 0.0223355 12.3227 0.0246139C12.5849 0.0268924 12.8357 0.132061 13.0211 0.317469C13.2065 0.502877 13.3117 0.75369 13.314 1.01589C13.3162 1.27808 13.2154 1.53069 13.0333 1.71929L7.37629 7.37629Z" fill="#ED2024"/>
</svg>
