<svg width="24" height="28" viewBox="0 0 24 28" fill="none" xmlns="http://www.w3.org/2000/svg">
<path d="M1.33333 0H22.6667C23.0203 0 23.3594 0.140476 23.6095 0.390524C23.8595 0.640573 24 0.979711 24 1.33333V27.0347C24.0001 27.1459 23.9724 27.2554 23.9193 27.3532C23.8663 27.451 23.7896 27.534 23.6963 27.5945C23.603 27.6551 23.496 27.6914 23.3851 27.7C23.2742 27.7086 23.1629 27.6894 23.0613 27.644L12 22.7067L0.938667 27.6427C0.837204 27.688 0.726015 27.7073 0.615213 27.6987C0.504411 27.6901 0.397511 27.654 0.304235 27.5936C0.210959 27.5331 0.134267 27.4504 0.0811329 27.3528C0.0279989 27.2551 0.000109101 27.1458 0 27.0347V1.33333C0 0.979711 0.140476 0.640573 0.390524 0.390524C0.640573 0.140476 0.979711 0 1.33333 0ZM12 15.3333L15.9187 17.3933L15.1707 13.0307L18.34 9.94L13.9587 9.30267L12 5.33333L10.04 9.30267L5.66 9.94L8.82933 13.0307L8.08267 17.3933L12 15.3333Z" fill="#ED2024"/>
</svg>
