<svg width="48" height="48" viewBox="0 0 48 48" fill="none" xmlns="http://www.w3.org/2000/svg">
<path d="M20.4852 32.6275L12 24.1421L14.8284 21.3137L20.4852 26.9707L31.799 15.6569L34.6274 18.4853L20.4852 32.6275Z" fill="#ED2024"/>
<path fill-rule="evenodd" clip-rule="evenodd" d="M2 24C2 11.8497 11.8497 2 24 2C36.1502 2 46 11.8497 46 24C46 36.1502 36.1502 46 24 46C11.8497 46 2 36.1502 2 24ZM24 42C14.0589 42 6 33.9412 6 24C6 14.0589 14.0589 6 24 6C33.9412 6 42 14.0589 42 24C42 33.9412 33.9412 42 24 42Z" fill="#ED2024"/>
</svg>
