<svg width="133" height="14" viewBox="0 0 133 14" fill="none" xmlns="http://www.w3.org/2000/svg">
<path d="M5.782 11.14C5.054 11.14 4.382 11.014 3.766 10.762C3.15933 10.5007 2.632 10.1413 2.184 9.684C1.736 9.21733 1.39067 8.68067 1.148 8.074C0.905333 7.458 0.784 6.79533 0.784 6.086C0.784 5.37667 0.905333 4.71867 1.148 4.112C1.39067 3.50533 1.73133 2.97333 2.17 2.516C2.618 2.05867 3.14533 1.704 3.752 1.452C4.35867 1.2 5.026 1.074 5.754 1.074C6.49133 1.074 7.16333 1.20467 7.77 1.466C8.386 1.718 8.91333 2.07267 9.352 2.53C9.8 2.978 10.1453 3.51 10.388 4.126C10.6307 4.73267 10.752 5.39067 10.752 6.1C10.752 6.80933 10.6307 7.472 10.388 8.088C10.1453 8.69467 9.8 9.22667 9.352 9.684C8.91333 10.1413 8.39067 10.5007 7.784 10.762C7.17733 11.014 6.51 11.14 5.782 11.14ZM5.754 10.524C6.61267 10.524 7.36867 10.328 8.022 9.936C8.67533 9.544 9.184 9.012 9.548 8.34C9.92133 7.668 10.108 6.91667 10.108 6.086C10.108 5.26467 9.92133 4.52267 9.548 3.86C9.184 3.19733 8.67533 2.67 8.022 2.278C7.36867 1.886 6.61267 1.69 5.754 1.69C4.90467 1.69 4.15333 1.886 3.5 2.278C2.84667 2.66067 2.338 3.18333 1.974 3.846C1.61 4.50867 1.428 5.25533 1.428 6.086C1.428 6.91667 1.61 7.668 1.974 8.34C2.34733 9.012 2.856 9.544 3.5 9.936C4.15333 10.328 4.90467 10.524 5.754 10.524ZM5.922 8.914C5.38067 8.914 4.89067 8.79267 4.452 8.55C4.02267 8.298 3.682 7.962 3.43 7.542C3.178 7.11267 3.052 6.632 3.052 6.1C3.052 5.568 3.178 5.092 3.43 4.672C3.682 4.24267 4.02733 3.90667 4.466 3.664C4.90467 3.412 5.39467 3.286 5.936 3.286C6.34667 3.286 6.734 3.36533 7.098 3.524C7.462 3.67333 7.77467 3.89733 8.036 4.196L7.14 5.106C6.99067 4.92867 6.81333 4.798 6.608 4.714C6.40267 4.63 6.17867 4.588 5.936 4.588C5.656 4.588 5.404 4.65333 5.18 4.784C4.956 4.90533 4.77867 5.08267 4.648 5.316C4.52667 5.54 4.466 5.80133 4.466 6.1C4.466 6.39867 4.52667 6.66467 4.648 6.898C4.77867 7.122 4.956 7.29933 5.18 7.43C5.404 7.55133 5.656 7.612 5.936 7.612C6.20667 7.612 6.44 7.56533 6.636 7.472C6.84133 7.36933 7.00933 7.23867 7.14 7.08L8.036 7.99C7.77467 8.28867 7.45733 8.51733 7.084 8.676C6.72 8.83467 6.33267 8.914 5.922 8.914ZM14.7338 10.048L18.3458 6.212C18.6445 5.89467 18.8871 5.61 19.0738 5.358C19.2605 5.106 19.3958 4.868 19.4798 4.644C19.5638 4.42 19.6058 4.19133 19.6058 3.958C19.6058 3.51933 19.4611 3.17867 19.1718 2.936C18.8918 2.684 18.5325 2.558 18.0938 2.558C17.6271 2.558 17.2165 2.67467 16.8618 2.908C16.5071 3.14133 16.1898 3.50533 15.9098 4L14.7898 3.076C15.1725 2.41333 15.6438 1.914 16.2038 1.578C16.7638 1.23267 17.4125 1.06 18.1498 1.06C18.7565 1.06 19.2885 1.18133 19.7458 1.424C20.2031 1.66667 20.5578 2.00733 20.8098 2.446C21.0618 2.87533 21.1878 3.37467 21.1878 3.944C21.1878 4.35467 21.1365 4.72333 21.0338 5.05C20.9405 5.36733 20.7771 5.68933 20.5438 6.016C20.3105 6.33333 19.9885 6.70667 19.5778 7.136L16.8058 10.006L14.7338 10.048ZM14.7338 11V10.048L16.1198 9.558H21.3838V11H14.7338ZM26.522 11.14C25.7847 11.14 25.108 10.9347 24.492 10.524C23.8853 10.104 23.4 9.516 23.036 8.76C22.672 8.004 22.49 7.11267 22.49 6.086C22.49 5.05933 22.6673 4.17267 23.022 3.426C23.386 2.67 23.8713 2.08667 24.478 1.676C25.0847 1.26533 25.7567 1.06 26.494 1.06C27.2407 1.06 27.9173 1.26533 28.524 1.676C29.1307 2.08667 29.6113 2.67 29.966 3.426C30.33 4.17267 30.512 5.064 30.512 6.1C30.512 7.12667 30.33 8.018 29.966 8.774C29.6113 9.53 29.1307 10.1133 28.524 10.524C27.9267 10.9347 27.2593 11.14 26.522 11.14ZM26.494 9.628C26.9793 9.628 27.3993 9.49733 27.754 9.236C28.1087 8.97467 28.384 8.58267 28.58 8.06C28.7853 7.53733 28.888 6.87933 28.888 6.086C28.888 5.302 28.7853 4.64867 28.58 4.126C28.384 3.60333 28.104 3.216 27.74 2.964C27.3853 2.70267 26.97 2.572 26.494 2.572C26.018 2.572 25.598 2.70267 25.234 2.964C24.8793 3.216 24.604 3.60333 24.408 4.126C24.212 4.63933 24.114 5.29267 24.114 6.086C24.114 6.87933 24.212 7.53733 24.408 8.06C24.604 8.58267 24.8793 8.97467 25.234 9.236C25.598 9.49733 26.018 9.628 26.494 9.628ZM31.4818 10.048L35.0938 6.212C35.3925 5.89467 35.6352 5.61 35.8218 5.358C36.0085 5.106 36.1438 4.868 36.2278 4.644C36.3118 4.42 36.3538 4.19133 36.3538 3.958C36.3538 3.51933 36.2092 3.17867 35.9198 2.936C35.6398 2.684 35.2805 2.558 34.8418 2.558C34.3752 2.558 33.9645 2.67467 33.6098 2.908C33.2552 3.14133 32.9378 3.50533 32.6578 4L31.5378 3.076C31.9205 2.41333 32.3918 1.914 32.9518 1.578C33.5118 1.23267 34.1605 1.06 34.8978 1.06C35.5045 1.06 36.0365 1.18133 36.4938 1.424C36.9512 1.66667 37.3058 2.00733 37.5578 2.446C37.8098 2.87533 37.9358 3.37467 37.9358 3.944C37.9358 4.35467 37.8845 4.72333 37.7818 5.05C37.6885 5.36733 37.5252 5.68933 37.2918 6.016C37.0585 6.33333 36.7365 6.70667 36.3258 7.136L33.5538 10.006L31.4818 10.048ZM31.4818 11V10.048L32.8678 9.558H38.1318V11H31.4818ZM42.1081 11.14C41.4547 11.14 40.8621 11.0233 40.3301 10.79C39.8074 10.5473 39.3641 10.1973 39.0001 9.74L40.0921 8.648C40.2881 8.94667 40.5634 9.18467 40.9181 9.362C41.2727 9.53933 41.6601 9.628 42.0801 9.628C42.4814 9.628 42.8267 9.55333 43.1161 9.404C43.4054 9.25467 43.6294 9.04467 43.7881 8.774C43.9561 8.50333 44.0401 8.19067 44.0401 7.836C44.0401 7.46267 43.9561 7.14533 43.7881 6.884C43.6294 6.62267 43.3961 6.422 43.0881 6.282C42.7894 6.13267 42.4254 6.058 41.9961 6.058C41.8281 6.058 41.6554 6.072 41.4781 6.1C41.3007 6.11867 41.1421 6.15133 41.0021 6.198L41.7161 5.274C41.9121 5.19933 42.1174 5.13867 42.3321 5.092C42.5561 5.036 42.7707 5.008 42.9761 5.008C43.4801 5.008 43.9327 5.12933 44.3341 5.372C44.7447 5.61467 45.0667 5.95533 45.3001 6.394C45.5427 6.82333 45.6641 7.332 45.6641 7.92C45.6641 8.55467 45.5147 9.11467 45.2161 9.6C44.9174 10.0853 44.5021 10.4633 43.9701 10.734C43.4381 11.0047 42.8174 11.14 42.1081 11.14ZM41.0021 6.198V5.246L43.6201 2.194L45.5521 2.152L42.8221 5.288L41.0021 6.198ZM39.4901 2.642V1.2H45.5521V2.152L44.1661 2.642H39.4901Z" fill="white"/>
<path d="M52.8213 11.14C52.0467 11.14 51.3887 11 50.8473 10.72C50.306 10.44 49.8207 10.0293 49.3913 9.488L50.4833 8.396C50.754 8.788 51.076 9.096 51.4493 9.32C51.8227 9.53467 52.2987 9.642 52.8773 9.642C53.4187 9.642 53.848 9.53 54.1653 9.306C54.492 9.082 54.6553 8.774 54.6553 8.382C54.6553 8.05533 54.5713 7.78933 54.4033 7.584C54.2353 7.37867 54.0113 7.21067 53.7313 7.08C53.4607 6.94 53.1573 6.81867 52.8213 6.716C52.4947 6.604 52.1633 6.48267 51.8273 6.352C51.5007 6.212 51.1973 6.03933 50.9173 5.834C50.6467 5.62867 50.4273 5.36267 50.2593 5.036C50.0913 4.70933 50.0073 4.294 50.0073 3.79C50.0073 3.21133 50.1473 2.72133 50.4273 2.32C50.7167 1.90933 51.104 1.59667 51.5893 1.382C52.0747 1.16733 52.616 1.06 53.2133 1.06C53.8573 1.06 54.4313 1.186 54.9353 1.438C55.4487 1.69 55.864 2.012 56.1813 2.404L55.0893 3.496C54.8093 3.17867 54.5153 2.94533 54.2073 2.796C53.9087 2.63733 53.5633 2.558 53.1713 2.558C52.686 2.558 52.3033 2.656 52.0233 2.852C51.7527 3.048 51.6173 3.32333 51.6173 3.678C51.6173 3.97667 51.7013 4.21933 51.8693 4.406C52.0373 4.58333 52.2567 4.73733 52.5273 4.868C52.8073 4.98933 53.1107 5.106 53.4373 5.218C53.7733 5.33 54.1047 5.456 54.4313 5.596C54.7673 5.736 55.0707 5.918 55.3413 6.142C55.6213 6.35667 55.8453 6.63667 56.0133 6.982C56.1813 7.32733 56.2653 7.76133 56.2653 8.284C56.2653 9.16133 55.9527 9.85667 55.3273 10.37C54.7113 10.8833 53.876 11.14 52.8213 11.14ZM59.4839 11L56.7819 4.28H58.3779L60.1979 9.166L59.7219 9.18L61.4999 4.28H62.3959L64.1739 9.18L63.6979 9.166L65.5179 4.28H67.1139L64.4119 11H63.5159L61.6959 6.352H62.1999L60.3799 11H59.4839ZM67.9832 11V4.28H69.5232V11H67.9832ZM68.7532 3.048C68.4919 3.048 68.2726 2.95933 68.0952 2.782C67.9272 2.60467 67.8432 2.38533 67.8432 2.124C67.8432 1.86267 67.9272 1.64333 68.0952 1.466C68.2726 1.28867 68.4919 1.2 68.7532 1.2C69.0239 1.2 69.2432 1.28867 69.4112 1.466C69.5792 1.64333 69.6632 1.86267 69.6632 2.124C69.6632 2.38533 69.5792 2.60467 69.4112 2.782C69.2432 2.95933 69.0239 3.048 68.7532 3.048ZM73.4485 11.14C73.0752 11.14 72.7158 11.0933 72.3705 11C72.0252 10.8973 71.7078 10.7573 71.4185 10.58C71.1292 10.3933 70.8772 10.1693 70.6625 9.908L71.6425 8.928C71.8758 9.19867 72.1418 9.404 72.4405 9.544C72.7485 9.67467 73.0938 9.74 73.4765 9.74C73.8218 9.74 74.0832 9.68867 74.2605 9.586C74.4378 9.48333 74.5265 9.334 74.5265 9.138C74.5265 8.93267 74.4425 8.774 74.2745 8.662C74.1065 8.55 73.8872 8.45667 73.6165 8.382C73.3552 8.298 73.0752 8.214 72.7765 8.13C72.4872 8.046 72.2072 7.934 71.9365 7.794C71.6752 7.64467 71.4605 7.444 71.2925 7.192C71.1245 6.94 71.0405 6.61333 71.0405 6.212C71.0405 5.78267 71.1385 5.414 71.3345 5.106C71.5398 4.798 71.8245 4.56 72.1885 4.392C72.5618 4.224 73.0052 4.14 73.5185 4.14C74.0598 4.14 74.5358 4.238 74.9465 4.434C75.3665 4.62067 75.7165 4.90533 75.9965 5.288L75.0165 6.268C74.8205 6.02533 74.5965 5.84333 74.3445 5.722C74.0925 5.60067 73.8032 5.54 73.4765 5.54C73.1685 5.54 72.9305 5.58667 72.7625 5.68C72.5945 5.77333 72.5105 5.90867 72.5105 6.086C72.5105 6.27267 72.5945 6.41733 72.7625 6.52C72.9305 6.62267 73.1452 6.71133 73.4065 6.786C73.6772 6.86067 73.9572 6.94467 74.2465 7.038C74.5452 7.122 74.8252 7.24333 75.0865 7.402C75.3572 7.55133 75.5765 7.75667 75.7445 8.018C75.9125 8.27 75.9965 8.60133 75.9965 9.012C75.9965 9.66533 75.7678 10.1833 75.3105 10.566C74.8532 10.9487 74.2325 11.14 73.4485 11.14ZM79.4641 11.14C79.0908 11.14 78.7314 11.0933 78.3861 11C78.0408 10.8973 77.7234 10.7573 77.4341 10.58C77.1448 10.3933 76.8928 10.1693 76.6781 9.908L77.6581 8.928C77.8914 9.19867 78.1574 9.404 78.4561 9.544C78.7641 9.67467 79.1094 9.74 79.4921 9.74C79.8374 9.74 80.0988 9.68867 80.2761 9.586C80.4534 9.48333 80.5421 9.334 80.5421 9.138C80.5421 8.93267 80.4581 8.774 80.2901 8.662C80.1221 8.55 79.9028 8.45667 79.6321 8.382C79.3708 8.298 79.0908 8.214 78.7921 8.13C78.5028 8.046 78.2228 7.934 77.9521 7.794C77.6908 7.64467 77.4761 7.444 77.3081 7.192C77.1401 6.94 77.0561 6.61333 77.0561 6.212C77.0561 5.78267 77.1541 5.414 77.3501 5.106C77.5554 4.798 77.8401 4.56 78.2041 4.392C78.5774 4.224 79.0208 4.14 79.5341 4.14C80.0754 4.14 80.5514 4.238 80.9621 4.434C81.3821 4.62067 81.7321 4.90533 82.0121 5.288L81.0321 6.268C80.8361 6.02533 80.6121 5.84333 80.3601 5.722C80.1081 5.60067 79.8188 5.54 79.4921 5.54C79.1841 5.54 78.9461 5.58667 78.7781 5.68C78.6101 5.77333 78.5261 5.90867 78.5261 6.086C78.5261 6.27267 78.6101 6.41733 78.7781 6.52C78.9461 6.62267 79.1608 6.71133 79.4221 6.786C79.6928 6.86067 79.9728 6.94467 80.2621 7.038C80.5608 7.122 80.8408 7.24333 81.1021 7.402C81.3728 7.55133 81.5921 7.75667 81.7601 8.018C81.9281 8.27 82.0121 8.60133 82.0121 9.012C82.0121 9.66533 81.7834 10.1833 81.3261 10.566C80.8688 10.9487 80.2481 11.14 79.4641 11.14ZM84.5977 11V9.6H87.4117C87.9064 9.6 88.2891 9.446 88.5597 9.138C88.8304 8.83 88.9657 8.47533 88.9657 8.074C88.9657 7.80333 88.9051 7.55133 88.7837 7.318C88.6624 7.08467 88.4851 6.898 88.2517 6.758C88.0184 6.618 87.7384 6.548 87.4117 6.548H84.5977V5.148H87.1737C87.5937 5.148 87.9297 5.04067 88.1817 4.826C88.4337 4.61133 88.5597 4.294 88.5597 3.874C88.5597 3.454 88.4337 3.13667 88.1817 2.922C87.9297 2.70733 87.5937 2.6 87.1737 2.6H84.5977V1.2H87.2157C87.8784 1.2 88.4291 1.32133 88.8677 1.564C89.3064 1.80667 89.6331 2.11933 89.8477 2.502C90.0624 2.88467 90.1697 3.29533 90.1697 3.734C90.1697 4.24733 90.0251 4.7 89.7357 5.092C89.4557 5.484 89.0404 5.80133 88.4897 6.044L88.6157 5.54C89.2317 5.792 89.7124 6.14667 90.0577 6.604C90.4031 7.06133 90.5757 7.598 90.5757 8.214C90.5757 8.718 90.4497 9.18 90.1977 9.6C89.9551 10.02 89.5911 10.3607 89.1057 10.622C88.6297 10.874 88.0417 11 87.3417 11H84.5977ZM83.4917 11V1.2H85.1017V11H83.4917ZM94.8047 11.14C94.1981 11.14 93.6474 10.986 93.1527 10.678C92.6674 10.37 92.2801 9.95467 91.9907 9.432C91.7107 8.9 91.5707 8.30733 91.5707 7.654C91.5707 6.99133 91.7107 6.39867 91.9907 5.876C92.2801 5.344 92.6674 4.924 93.1527 4.616C93.6474 4.29867 94.1981 4.14 94.8047 4.14C95.3181 4.14 95.7707 4.252 96.1627 4.476C96.5641 4.69067 96.8814 4.98933 97.1147 5.372C97.3481 5.75467 97.4647 6.18867 97.4647 6.674V8.606C97.4647 9.09133 97.3481 9.52533 97.1147 9.908C96.8907 10.2907 96.5781 10.594 96.1767 10.818C95.7754 11.0327 95.3181 11.14 94.8047 11.14ZM95.0567 9.684C95.6261 9.684 96.0834 9.49267 96.4287 9.11C96.7834 8.72733 96.9607 8.23733 96.9607 7.64C96.9607 7.23867 96.8814 6.884 96.7227 6.576C96.5641 6.268 96.3401 6.03 96.0507 5.862C95.7707 5.68467 95.4394 5.596 95.0567 5.596C94.6834 5.596 94.3521 5.68467 94.0627 5.862C93.7827 6.03 93.5587 6.268 93.3907 6.576C93.2321 6.884 93.1527 7.23867 93.1527 7.64C93.1527 8.04133 93.2321 8.396 93.3907 8.704C93.5587 9.012 93.7827 9.25467 94.0627 9.432C94.3521 9.6 94.6834 9.684 95.0567 9.684ZM96.8627 11V9.194L97.1287 7.556L96.8627 5.932V4.28H98.4027V11H96.8627ZM104.718 11V7.122C104.718 6.674 104.573 6.30533 104.284 6.016C104.004 5.72667 103.64 5.582 103.192 5.582C102.893 5.582 102.627 5.64733 102.394 5.778C102.16 5.90867 101.978 6.09067 101.848 6.324C101.717 6.55733 101.652 6.82333 101.652 7.122L101.05 6.786C101.05 6.27267 101.162 5.82 101.386 5.428C101.61 5.02667 101.918 4.714 102.31 4.49C102.711 4.25667 103.159 4.14 103.654 4.14C104.158 4.14 104.606 4.27067 104.998 4.532C105.39 4.784 105.698 5.11533 105.922 5.526C106.146 5.92733 106.258 6.34733 106.258 6.786V11H104.718ZM100.112 11V4.28H101.652V11H100.112ZM112.093 11L109.251 7.57L112.079 4.28H113.913L110.665 7.976L110.735 7.094L114.053 11H112.093ZM107.823 11V0.92H109.363V11H107.823ZM114.741 11V4.28H116.281V11H114.741ZM115.511 3.048C115.25 3.048 115.03 2.95933 114.853 2.782C114.685 2.60467 114.601 2.38533 114.601 2.124C114.601 1.86267 114.685 1.64333 114.853 1.466C115.03 1.28867 115.25 1.2 115.511 1.2C115.782 1.2 116.001 1.28867 116.169 1.466C116.337 1.64333 116.421 1.86267 116.421 2.124C116.421 2.38533 116.337 2.60467 116.169 2.782C116.001 2.95933 115.782 3.048 115.511 3.048ZM122.614 11V7.122C122.614 6.674 122.47 6.30533 122.18 6.016C121.9 5.72667 121.536 5.582 121.088 5.582C120.79 5.582 120.524 5.64733 120.29 5.778C120.057 5.90867 119.875 6.09067 119.744 6.324C119.614 6.55733 119.548 6.82333 119.548 7.122L118.946 6.786C118.946 6.27267 119.058 5.82 119.282 5.428C119.506 5.02667 119.814 4.714 120.206 4.49C120.608 4.25667 121.056 4.14 121.55 4.14C122.054 4.14 122.502 4.27067 122.894 4.532C123.286 4.784 123.594 5.11533 123.818 5.526C124.042 5.92733 124.154 6.34733 124.154 6.786V11H122.614ZM118.008 11V4.28H119.548V11H118.008ZM128.519 13.94C127.81 13.94 127.189 13.8093 126.657 13.548C126.125 13.296 125.696 12.9367 125.369 12.47L126.377 11.462C126.648 11.798 126.956 12.05 127.301 12.218C127.647 12.386 128.062 12.47 128.547 12.47C129.154 12.47 129.635 12.3113 129.989 11.994C130.344 11.686 130.521 11.2613 130.521 10.72V9.068L130.787 7.584L130.521 6.086V4.28H132.061V10.72C132.061 11.364 131.912 11.924 131.613 12.4C131.315 12.8853 130.899 13.2633 130.367 13.534C129.835 13.8047 129.219 13.94 128.519 13.94ZM128.449 10.86C127.852 10.86 127.311 10.7153 126.825 10.426C126.349 10.1273 125.971 9.72133 125.691 9.208C125.421 8.69467 125.285 8.12067 125.285 7.486C125.285 6.85133 125.421 6.282 125.691 5.778C125.971 5.274 126.349 4.87733 126.825 4.588C127.311 4.28933 127.852 4.14 128.449 4.14C128.981 4.14 129.448 4.24733 129.849 4.462C130.251 4.67667 130.563 4.97533 130.787 5.358C131.011 5.73133 131.123 6.17 131.123 6.674V8.326C131.123 8.82067 131.007 9.25933 130.773 9.642C130.549 10.0247 130.237 10.3233 129.835 10.538C129.434 10.7527 128.972 10.86 128.449 10.86ZM128.757 9.404C129.131 9.404 129.457 9.32467 129.737 9.166C130.017 9.00733 130.232 8.788 130.381 8.508C130.54 8.21867 130.619 7.88267 130.619 7.5C130.619 7.11733 130.54 6.786 130.381 6.506C130.232 6.21667 130.017 5.99267 129.737 5.834C129.457 5.67533 129.131 5.596 128.757 5.596C128.384 5.596 128.053 5.67533 127.763 5.834C127.483 5.99267 127.264 6.21667 127.105 6.506C126.947 6.786 126.867 7.11733 126.867 7.5C126.867 7.87333 126.947 8.20467 127.105 8.494C127.264 8.78333 127.483 9.00733 127.763 9.166C128.053 9.32467 128.384 9.404 128.757 9.404Z" fill="#ED2024"/>
</svg>
